<mxfile host="app.diagrams.net" modified="2021-12-04T18:44:22.346Z" agent="5.0 (Windows NT 10.0; Win64; x64) AppleWebKit/537.36 (KHTML, like Gecko) Chrome/96.0.4664.45 Safari/537.36" etag="fpt7NhtLW8lKg5FTtZR7" version="15.9.1" type="github">
  <diagram id="V3CfdtRdbDj_7DybPWGe" name="Page-1">
    <mxGraphModel dx="838" dy="574" grid="1" gridSize="10" guides="1" tooltips="1" connect="1" arrows="1" fold="1" page="1" pageScale="1" pageWidth="850" pageHeight="1100" math="0" shadow="0">
      <root>
        <mxCell id="0" />
        <mxCell id="1" parent="0" />
        <mxCell id="k56KaWkT5f99XN63cBPl-3" value="" style="group" vertex="1" connectable="0" parent="1">
          <mxGeometry x="320" y="160" width="200" height="100" as="geometry" />
        </mxCell>
        <mxCell id="k56KaWkT5f99XN63cBPl-1" value="" style="rounded=1;whiteSpace=wrap;html=1;" vertex="1" parent="k56KaWkT5f99XN63cBPl-3">
          <mxGeometry width="200" height="100" as="geometry" />
        </mxCell>
        <mxCell id="k56KaWkT5f99XN63cBPl-2" value="&lt;b&gt;&lt;font style=&quot;font-size: 16px&quot;&gt;Master Scheduler&lt;/font&gt;&lt;/b&gt;" style="text;html=1;strokeColor=none;fillColor=none;align=center;verticalAlign=middle;whiteSpace=wrap;rounded=0;" vertex="1" parent="k56KaWkT5f99XN63cBPl-3">
          <mxGeometry x="68.42105263157895" y="35" width="63.1578947368421" height="30" as="geometry" />
        </mxCell>
        <mxCell id="k56KaWkT5f99XN63cBPl-15" value="" style="group" vertex="1" connectable="0" parent="1">
          <mxGeometry x="170" y="360" width="190" height="50" as="geometry" />
        </mxCell>
        <mxCell id="k56KaWkT5f99XN63cBPl-4" value="" style="group" vertex="1" connectable="0" parent="k56KaWkT5f99XN63cBPl-15">
          <mxGeometry width="190" height="50" as="geometry" />
        </mxCell>
        <mxCell id="k56KaWkT5f99XN63cBPl-5" value="" style="rounded=1;whiteSpace=wrap;html=1;" vertex="1" parent="k56KaWkT5f99XN63cBPl-4">
          <mxGeometry width="190" height="50" as="geometry" />
        </mxCell>
        <mxCell id="k56KaWkT5f99XN63cBPl-6" value="&lt;b&gt;&lt;font style=&quot;font-size: 16px&quot;&gt;&lt;font color=&quot;#0000ff&quot;&gt;ClusterIP&lt;br&gt;&lt;/font&gt;&lt;/font&gt;&lt;/b&gt;&lt;b&gt;&lt;font style=&quot;font-size: 16px&quot;&gt;Mongodb&lt;br&gt;&lt;/font&gt;&lt;/b&gt;" style="text;html=1;strokeColor=none;fillColor=none;align=center;verticalAlign=middle;whiteSpace=wrap;rounded=0;" vertex="1" parent="k56KaWkT5f99XN63cBPl-4">
          <mxGeometry x="70" y="10" width="116" height="32.5" as="geometry" />
        </mxCell>
        <mxCell id="k56KaWkT5f99XN63cBPl-11" value="&lt;font color=&quot;#666666&quot; size=&quot;1&quot;&gt;&lt;b style=&quot;font-size: 9px&quot;&gt;service discovery:&lt;/b&gt;&lt;/font&gt;" style="text;html=1;strokeColor=none;fillColor=none;align=left;verticalAlign=middle;whiteSpace=wrap;rounded=0;fontSize=16;fontColor=#009900;" vertex="1" parent="k56KaWkT5f99XN63cBPl-15">
          <mxGeometry x="3" width="83" height="30" as="geometry" />
        </mxCell>
        <mxCell id="k56KaWkT5f99XN63cBPl-39" value="&lt;font color=&quot;#666666&quot; size=&quot;1&quot;&gt;&lt;b style=&quot;font-size: 9px&quot;&gt;service name:&lt;/b&gt;&lt;/font&gt;" style="text;html=1;strokeColor=none;fillColor=none;align=left;verticalAlign=middle;whiteSpace=wrap;rounded=0;fontSize=16;fontColor=#009900;" vertex="1" parent="k56KaWkT5f99XN63cBPl-15">
          <mxGeometry x="3" y="20" width="90" height="30" as="geometry" />
        </mxCell>
        <mxCell id="k56KaWkT5f99XN63cBPl-21" value="" style="group" vertex="1" connectable="0" parent="1">
          <mxGeometry x="420" y="360" width="190" height="50" as="geometry" />
        </mxCell>
        <mxCell id="k56KaWkT5f99XN63cBPl-22" value="" style="group" vertex="1" connectable="0" parent="k56KaWkT5f99XN63cBPl-21">
          <mxGeometry width="190" height="50" as="geometry" />
        </mxCell>
        <mxCell id="k56KaWkT5f99XN63cBPl-23" value="" style="rounded=1;whiteSpace=wrap;html=1;" vertex="1" parent="k56KaWkT5f99XN63cBPl-22">
          <mxGeometry width="190" height="50" as="geometry" />
        </mxCell>
        <mxCell id="k56KaWkT5f99XN63cBPl-24" value="&lt;b&gt;&lt;font style=&quot;font-size: 16px&quot;&gt;&lt;font color=&quot;#0000ff&quot;&gt;NodePort&lt;br&gt;&lt;/font&gt;&lt;/font&gt;&lt;/b&gt;&lt;b&gt;&lt;font style=&quot;font-size: 16px&quot;&gt;SpringApp&lt;br&gt;&lt;/font&gt;&lt;/b&gt;" style="text;html=1;strokeColor=none;fillColor=none;align=center;verticalAlign=middle;whiteSpace=wrap;rounded=0;" vertex="1" parent="k56KaWkT5f99XN63cBPl-22">
          <mxGeometry x="80" y="8.75" width="110" height="32.5" as="geometry" />
        </mxCell>
        <mxCell id="k56KaWkT5f99XN63cBPl-25" value="&lt;font color=&quot;#666666&quot; size=&quot;1&quot;&gt;&lt;b style=&quot;font-size: 9px&quot;&gt;service discovery:&lt;/b&gt;&lt;/font&gt;" style="text;html=1;strokeColor=none;fillColor=none;align=left;verticalAlign=middle;whiteSpace=wrap;rounded=0;fontSize=16;fontColor=#009900;" vertex="1" parent="k56KaWkT5f99XN63cBPl-21">
          <mxGeometry x="4" width="100" height="30" as="geometry" />
        </mxCell>
        <mxCell id="k56KaWkT5f99XN63cBPl-26" value="" style="whiteSpace=wrap;html=1;fontSize=12;fontColor=#666666;" vertex="1" parent="1">
          <mxGeometry x="40" y="600" width="290" height="50" as="geometry" />
        </mxCell>
        <mxCell id="k56KaWkT5f99XN63cBPl-27" value="" style="edgeStyle=orthogonalEdgeStyle;rounded=0;orthogonalLoop=1;jettySize=auto;html=1;fontSize=12;fontColor=#666666;" edge="1" parent="1" source="k56KaWkT5f99XN63cBPl-6" target="k56KaWkT5f99XN63cBPl-26">
          <mxGeometry relative="1" as="geometry" />
        </mxCell>
        <mxCell id="k56KaWkT5f99XN63cBPl-28" value="" style="whiteSpace=wrap;html=1;fontSize=12;fontColor=#666666;" vertex="1" parent="1">
          <mxGeometry x="460" y="470" width="300" height="180" as="geometry" />
        </mxCell>
        <mxCell id="k56KaWkT5f99XN63cBPl-29" value="" style="edgeStyle=orthogonalEdgeStyle;rounded=0;orthogonalLoop=1;jettySize=auto;html=1;fontSize=12;fontColor=#666666;" edge="1" parent="1" target="k56KaWkT5f99XN63cBPl-28">
          <mxGeometry relative="1" as="geometry">
            <mxPoint x="540" y="410" as="sourcePoint" />
          </mxGeometry>
        </mxCell>
        <mxCell id="k56KaWkT5f99XN63cBPl-31" value="" style="endArrow=classic;html=1;rounded=0;fontSize=12;fontColor=#666666;exitX=0;exitY=1;exitDx=0;exitDy=0;entryX=0.5;entryY=0;entryDx=0;entryDy=0;" edge="1" parent="1" source="k56KaWkT5f99XN63cBPl-1" target="k56KaWkT5f99XN63cBPl-5">
          <mxGeometry width="50" height="50" relative="1" as="geometry">
            <mxPoint x="190" y="340" as="sourcePoint" />
            <mxPoint x="240" y="290" as="targetPoint" />
          </mxGeometry>
        </mxCell>
        <mxCell id="k56KaWkT5f99XN63cBPl-32" value="" style="endArrow=classic;html=1;rounded=0;fontSize=12;fontColor=#666666;exitX=1;exitY=1;exitDx=0;exitDy=0;" edge="1" parent="1" source="k56KaWkT5f99XN63cBPl-1">
          <mxGeometry width="50" height="50" relative="1" as="geometry">
            <mxPoint x="330" y="270" as="sourcePoint" />
            <mxPoint x="520" y="360" as="targetPoint" />
          </mxGeometry>
        </mxCell>
        <mxCell id="k56KaWkT5f99XN63cBPl-36" value="&lt;h1&gt;node1&lt;/h1&gt;" style="text;html=1;strokeColor=none;fillColor=none;spacing=5;spacingTop=-20;whiteSpace=wrap;overflow=hidden;rounded=0;fontSize=12;fontColor=#666666;align=center;" vertex="1" parent="1">
          <mxGeometry x="125" y="610" width="120" height="40" as="geometry" />
        </mxCell>
        <mxCell id="k56KaWkT5f99XN63cBPl-37" value="&lt;h1&gt;node2&lt;/h1&gt;" style="text;html=1;strokeColor=none;fillColor=none;spacing=5;spacingTop=-20;whiteSpace=wrap;overflow=hidden;rounded=0;fontSize=12;fontColor=#666666;align=center;" vertex="1" parent="1">
          <mxGeometry x="550" y="610" width="120" height="50" as="geometry" />
        </mxCell>
        <mxCell id="k56KaWkT5f99XN63cBPl-40" value="&lt;font color=&quot;#666666&quot; size=&quot;1&quot;&gt;&lt;b style=&quot;font-size: 9px&quot;&gt;service name:&lt;/b&gt;&lt;/font&gt;" style="text;html=1;strokeColor=none;fillColor=none;align=left;verticalAlign=middle;whiteSpace=wrap;rounded=0;fontSize=16;fontColor=#009900;" vertex="1" parent="1">
          <mxGeometry x="425" y="380" width="100" height="30" as="geometry" />
        </mxCell>
        <mxCell id="k56KaWkT5f99XN63cBPl-44" value="&lt;font color=&quot;#666666&quot; size=&quot;1&quot;&gt;&lt;b style=&quot;font-size: 9px&quot;&gt;kube-proxy&lt;/b&gt;&lt;/font&gt;" style="text;html=1;strokeColor=none;fillColor=none;align=left;verticalAlign=middle;whiteSpace=wrap;rounded=0;fontSize=16;fontColor=#009900;" vertex="1" parent="1">
          <mxGeometry x="50" y="625" width="83" height="20" as="geometry" />
        </mxCell>
        <mxCell id="k56KaWkT5f99XN63cBPl-48" value="" style="group" vertex="1" connectable="0" parent="1">
          <mxGeometry x="40" y="500" width="120" height="100" as="geometry" />
        </mxCell>
        <mxCell id="k56KaWkT5f99XN63cBPl-35" value="" style="rounded=0;whiteSpace=wrap;html=1;fontSize=12;fontColor=#666666;" vertex="1" parent="k56KaWkT5f99XN63cBPl-48">
          <mxGeometry width="120" height="100" as="geometry" />
        </mxCell>
        <mxCell id="k56KaWkT5f99XN63cBPl-38" value="&lt;h1&gt;&lt;font style=&quot;font-size: 17px&quot;&gt;mongodb&lt;/font&gt;&lt;/h1&gt;" style="text;html=1;strokeColor=none;fillColor=none;spacing=5;spacingTop=-20;whiteSpace=wrap;overflow=hidden;rounded=0;fontSize=12;fontColor=#666666;align=center;" vertex="1" parent="k56KaWkT5f99XN63cBPl-48">
          <mxGeometry width="120" height="50" as="geometry" />
        </mxCell>
        <mxCell id="k56KaWkT5f99XN63cBPl-46" value="" style="group" vertex="1" connectable="0" parent="k56KaWkT5f99XN63cBPl-48">
          <mxGeometry x="30" y="34" width="61" height="60" as="geometry" />
        </mxCell>
        <mxCell id="k56KaWkT5f99XN63cBPl-41" value="" style="shape=cylinder3;whiteSpace=wrap;html=1;boundedLbl=1;backgroundOutline=1;size=15;fontSize=9;fontColor=#666666;" vertex="1" parent="k56KaWkT5f99XN63cBPl-46">
          <mxGeometry width="60" height="60" as="geometry" />
        </mxCell>
        <mxCell id="k56KaWkT5f99XN63cBPl-45" value="&lt;font style=&quot;font-size: 12px&quot;&gt;/data/db&lt;/font&gt;" style="text;html=1;strokeColor=none;fillColor=none;align=center;verticalAlign=middle;whiteSpace=wrap;rounded=0;fontSize=17;fontColor=#666666;" vertex="1" parent="k56KaWkT5f99XN63cBPl-46">
          <mxGeometry x="1" y="25.000000000000004" width="60" height="30" as="geometry" />
        </mxCell>
      </root>
    </mxGraphModel>
  </diagram>
</mxfile>
